<?xml version="1.0" encoding="UTF-8"?>
<svg id="Layer_1" data-name="Layer 1" xmlns="http://www.w3.org/2000/svg" viewBox="0 0 500 500">
  <defs>
    <style>
      .cls-1 {
        stroke-width: 16px;
      }

      .cls-1, .cls-2 {
        stroke-linecap: round;
        stroke-linejoin: round;
      }

      .cls-1, .cls-2, .cls-3 {
        fill: none;
        stroke: #152d53;
      }

      .cls-2, .cls-3 {
        stroke-width: 16px;
      }

      .cls-3 {
        stroke-miterlimit: 10;
      }
    </style>
  </defs>
  <rect class="cls-1" x="252.54" y="293.21" width="141.61" height="60.17" rx="5.32" ry="5.32" transform="translate(-133.9 323.33) rotate(-45)"/>
  <line class="cls-2" x1="323.35" y1="280.75" x2="344.62" y2="302.02"/>
  <line class="cls-2" x1="302.07" y1="302.02" x2="323.35" y2="323.3"/>
  <line class="cls-2" x1="280.8" y1="323.3" x2="302.07" y2="344.57"/>
  <circle class="cls-3" cx="250" cy="250" r="207.61"/>
  <line class="cls-2" x1="157.63" y1="360.94" x2="364.15" y2="154.42"/>
  <rect class="cls-2" x="125.08" y="133.71" width="28.29" height="101.86" rx="5.66" ry="5.66"/>
  <rect class="cls-2" x="198.64" y="133.71" width="28.29" height="101.86" rx="5.66" ry="5.66"/>
  <path class="cls-2" d="M226.94,150.68h16.98c3.13,0,5.66,2.53,5.66,5.66v56.59c0,3.13-2.53,5.66-5.66,5.66h-16.98"/>
  <path class="cls-2" d="M125.08,218.59h-16.98c-3.13,0-5.66-2.53-5.66-5.66v-56.59c0-3.13,2.53-5.66,5.66-5.66h16.98"/>
  <line class="cls-2" x1="153.37" y1="184.63" x2="198.64" y2="184.63"/>
  <line class="cls-2" x1="249.57" y1="184.63" x2="260.89" y2="184.63"/>
  <line class="cls-2" x1="91.13" y1="184.63" x2="102.45" y2="184.63"/>
</svg>